<?xml version="1.0" standalone="no"?>
<!DOCTYPE svg PUBLIC "-//W3C//DTD SVG 20010904//EN"
 "http://www.w3.org/TR/2001/REC-SVG-20010904/DTD/svg10.dtd">
<svg version="1.0" xmlns="http://www.w3.org/2000/svg"
 width="200.000000pt" height="200.000000pt" viewBox="0 0 200.000000 200.000000"
 preserveAspectRatio="xMidYMid meet">

<g transform="translate(0.000000,200.000000) scale(0.100000,-0.100000)"
fill="#000000" stroke="none">
<path d="M1105 1575 c-68 -18 -176 -68 -320 -149 -131 -74 -151 -88 -140 -105
10 -17 35 -7 205 84 164 89 283 135 348 135 55 0 162 -39 330 -121 260 -126
271 -126 62 -2 -172 102 -219 126 -304 152 -78 24 -111 25 -181 6z"/>
<path d="M420 1213 c-25 -1 -79 -6 -120 -10 l-75 -7 60 -7 c33 -4 212 -11 397
-15 269 -6 340 -5 353 6 12 10 13 16 4 26 -9 11 -65 14 -293 12 -154 -1 -301
-3 -326 -5z"/>
<path d="M640 895 l0 -115 30 0 30 0 0 68 c0 75 16 102 58 102 12 0 22 6 22
14 0 8 3 21 6 30 9 24 -37 21 -69 -4 -25 -20 -25 -20 -30 0 -3 12 -14 20 -26
20 -20 0 -21 -5 -21 -115z"/>
<path d="M830 911 c0 -96 1 -100 26 -120 32 -25 71 -27 104 -4 17 12 25 13 28
5 2 -7 15 -12 28 -12 24 0 24 0 24 115 l0 115 -30 0 -30 0 0 -67 c0 -74 -15
-116 -43 -121 -37 -7 -47 16 -47 104 l0 84 -30 0 -30 0 0 -99z"/>
<path d="M1137 990 c-48 -38 -59 -125 -22 -177 21 -30 77 -46 131 -38 38 5 44
10 44 30 0 23 -2 24 -50 18 -54 -6 -80 6 -80 38 0 17 8 19 70 19 l70 0 0 39
c0 77 -100 120 -163 71z m82 -30 c10 -5 21 -16 25 -25 4 -12 -3 -15 -39 -15
-48 0 -62 19 -27 39 21 13 20 13 41 1z"/>
<path d="M263 670 c5 -59 5 -60 -16 -45 -32 23 -82 19 -114 -9 -25 -22 -28
-30 -28 -91 0 -61 3 -69 28 -91 33 -28 82 -32 115 -8 20 14 22 14 22 0 0 -9 7
-16 15 -16 13 0 15 24 15 160 0 157 0 160 -21 160 -20 0 -21 -4 -16 -60z m-19
-76 c22 -21 22 -117 0 -138 -20 -21 -63 -20 -86 1 -24 22 -25 109 -1 135 20
22 66 24 87 2z"/>
<path d="M1520 675 c0 -52 -1 -55 -19 -45 -40 21 -87 12 -115 -21 -37 -44 -37
-124 0 -168 30 -36 78 -42 119 -15 23 15 25 15 25 -1 0 -9 6 -15 13 -13 9 4
13 47 15 161 2 152 2 157 -18 157 -18 0 -20 -6 -20 -55z m-18 -82 c13 -12 18
-30 18 -69 0 -63 -17 -84 -66 -84 -30 0 -37 5 -50 35 -7 19 -14 41 -14 50 0 9
7 31 14 50 13 30 20 35 47 35 18 0 41 -7 51 -17z"/>
<path d="M1630 700 c0 -15 5 -20 18 -18 9 2 17 10 17 18 0 8 -8 16 -17 18 -13
2 -18 -3 -18 -18z"/>
<path d="M370 545 c0 -82 3 -98 20 -115 24 -24 86 -27 118 -4 20 14 22 14 22
0 0 -9 7 -16 15 -16 12 0 15 19 15 115 0 108 -1 115 -20 115 -18 0 -20 -7 -20
-84 0 -97 -11 -116 -66 -116 -44 0 -54 24 -54 126 0 59 -3 74 -15 74 -12 0
-15 -17 -15 -95z"/>
<path d="M740 525 c0 -90 3 -115 14 -115 10 0 15 23 18 85 7 100 17 117 67
113 l36 -3 5 -95 c4 -80 8 -95 23 -98 15 -3 17 6 17 82 0 95 11 116 60 116 40
0 50 -24 50 -119 0 -65 3 -81 15 -81 22 0 22 176 -1 208 -18 27 -78 30 -112 6
-20 -14 -24 -14 -38 0 -20 20 -73 20 -102 0 -20 -14 -22 -14 -22 0 0 9 -7 16
-15 16 -12 0 -15 -19 -15 -115z"/>
<path d="M1167 629 c-22 -13 -47 -68 -47 -105 0 -39 28 -90 56 -103 45 -20
124 -12 124 14 0 8 -14 11 -49 7 -40 -3 -52 -1 -70 17 -11 11 -21 30 -21 41 0
18 7 20 75 20 74 0 75 0 75 25 0 33 -25 81 -45 89 -25 9 -78 7 -98 -5z m91
-31 c7 -7 12 -20 12 -30 0 -15 -9 -18 -55 -18 -59 0 -68 10 -38 42 18 20 63
24 81 6z"/>
<path d="M1630 525 c0 -96 3 -115 15 -115 12 0 15 19 15 115 0 96 -3 115 -15
115 -12 0 -15 -19 -15 -115z"/>
<path d="M1768 633 c-10 -2 -18 -10 -18 -18 0 -9 12 -11 47 -7 37 4 49 1 60
-13 23 -33 15 -42 -43 -50 -64 -8 -94 -31 -94 -74 0 -53 77 -81 127 -46 19 13
22 13 27 0 3 -8 10 -15 16 -15 6 0 10 36 10 95 0 82 -3 98 -20 115 -19 19 -67
25 -112 13z m98 -140 c-9 -37 -34 -55 -71 -51 -23 2 -31 9 -33 27 -5 32 21 51
71 51 38 0 39 -1 33 -27z"/>
</g>
</svg>
